<?xml version="1.0" encoding="utf-8"?>
<!-- Generator: Adobe Illustrator 17.0.0, SVG Export Plug-In . SVG Version: 6.00 Build 0)  -->
<!DOCTYPE svg PUBLIC "-//W3C//DTD SVG 1.1//EN" "http://www.w3.org/Graphics/SVG/1.1/DTD/svg11.dtd">
<svg version="1.1" id="Layer_1" xmlns="http://www.w3.org/2000/svg" xmlns:xlink="http://www.w3.org/1999/xlink" x="0px" y="0px"
	 width="109.801px" height="37.523px" viewBox="0 0 109.801 37.523" enable-background="new 0 0 109.801 37.523"
	 xml:space="preserve">
<g>
	<g>
		<path fill="#FFFFFF" d="M18.389,18.609c0-5.094,1.867-9.469,5.602-13.125C27.709,1.828,32.178,0,37.397,0
			c5.156,0,9.578,1.844,13.266,5.531c3.703,3.688,5.555,8.117,5.555,13.289c0,5.203-1.859,9.617-5.578,13.242
			c-3.734,3.641-8.242,5.461-13.523,5.461c-4.672,0-8.867-1.617-12.586-4.852C20.436,29.094,18.389,24.406,18.389,18.609z
			 M23.897,18.668c0,3.997,1.344,7.283,4.031,9.859c2.672,2.576,5.758,3.864,9.258,3.864c3.797,0,7-1.312,9.609-3.934
			c2.609-2.654,3.914-5.885,3.914-9.695c0-3.856-1.289-7.087-3.867-9.695c-2.562-2.623-5.734-3.934-9.516-3.934
			c-3.766,0-6.945,1.312-9.539,3.934C25.194,11.659,23.897,14.859,23.897,18.668z"/>
		<path fill="#FFFFFF" d="M52.28,18.609c0-5.094,1.867-9.469,5.602-13.125C61.6,1.828,66.069,0,71.288,0
			c5.156,0,9.578,1.844,13.266,5.531c3.703,3.688,5.555,8.117,5.555,13.289c0,5.203-1.859,9.617-5.578,13.242
			c-3.734,3.641-8.242,5.461-13.523,5.461c-4.672,0-8.867-1.617-12.586-4.852C54.327,29.094,52.28,24.406,52.28,18.609z
			 M57.788,18.668c0,3.997,1.344,7.283,4.031,9.859c2.672,2.576,5.758,3.864,9.258,3.864c3.797,0,7-1.312,9.609-3.934
			c2.609-2.654,3.914-5.885,3.914-9.695c0-3.856-1.289-7.087-3.867-9.695c-2.562-2.623-5.734-3.934-9.516-3.934
			c-3.766,0-6.945,1.312-9.539,3.934C59.084,11.659,57.788,14.859,57.788,18.668z"/>
	</g>
	<g>
		<path fill="#FFFFFF" d="M2.201,20.414v7.146H0V10.263h4.212c2.098,0,3.648,0.406,4.65,1.219s1.503,2.043,1.503,3.692
			c0,0.686-0.097,1.286-0.29,1.798s-0.45,0.952-0.769,1.319s-0.684,0.672-1.094,0.917c-0.41,0.245-0.832,0.446-1.266,0.603
			l4.709,7.75H9.063L4.91,20.414H2.201z M2.201,18.545h1.94c0.71,0,1.313-0.069,1.81-0.207c0.497-0.138,0.905-0.343,1.225-0.615
			c0.319-0.272,0.552-0.611,0.698-1.018c0.146-0.406,0.219-0.881,0.219-1.426c0-0.568-0.081-1.049-0.243-1.443
			c-0.162-0.394-0.406-0.718-0.734-0.97c-0.327-0.252-0.741-0.436-1.242-0.55s-1.094-0.172-1.781-0.172H2.201V18.545z"/>
	</g>
	<path fill="#FFFFFF" d="M109.801,27.561h-2.497l-5.336-8.259l-1.645,1.349v6.91h-2.201V10.263h2.201v8.649l1.432-1.988l5.348-6.661
		h2.473l-6.153,7.537L109.801,27.561z"/>
</g>
</svg>
