<?xml version="1.0" encoding="utf-8"?>
<!-- Generator: Adobe Illustrator 17.0.0, SVG Export Plug-In . SVG Version: 6.00 Build 0)  -->
<!DOCTYPE svg PUBLIC "-//W3C//DTD SVG 1.1//EN" "http://www.w3.org/Graphics/SVG/1.1/DTD/svg11.dtd">
<svg version="1.1" id="Layer_1" xmlns="http://www.w3.org/2000/svg" xmlns:xlink="http://www.w3.org/1999/xlink" x="0px" y="0px"
	 width="56px" height="56px" viewBox="0 0 56 56" enable-background="new 0 0 56 56" xml:space="preserve">
<g>
	<path fill="#373535" d="M21.763,6.009v3.408c-4.877,2.55-8.368,5.21-10.474,7.981C9.182,20.17,8.13,23.19,8.13,26.46
		c0,1.94,0.277,3.27,0.831,3.99c0.499,0.776,1.108,1.164,1.829,1.164c0.72,0,1.69-0.208,2.91-0.623
		c1.218-0.416,2.328-0.623,3.325-0.623c2.272,0,4.253,0.845,5.943,2.536c1.691,1.691,2.536,3.755,2.536,6.193
		c0,2.66-1.026,4.946-3.076,6.858s-4.6,2.868-7.648,2.868c-3.713,0-7.066-1.607-10.059-4.822c-2.993-3.214-4.489-7.177-4.489-11.888
		c0-5.541,1.842-10.71,5.528-15.504C9.446,11.816,14.781,8.282,21.763,6.009z M51.276,6.259v3.159
		c-5.598,3.215-9.282,6.097-11.056,8.646c-1.774,2.55-2.66,5.542-2.66,8.978c0,1.552,0.304,2.716,0.914,3.492
		c0.61,0.776,1.247,1.164,1.912,1.164c0.61,0,1.525-0.221,2.743-0.665c1.219-0.443,2.439-0.665,3.658-0.665
		c2.273,0,4.253,0.818,5.944,2.452c1.691,1.635,2.536,3.644,2.536,6.027c0,2.716-1.067,5.071-3.201,7.066s-4.752,2.993-7.856,2.993
		c-3.658,0-6.955-1.579-9.893-4.738c-2.938-3.159-4.406-7.094-4.406-11.805c0-5.819,1.857-11.125,5.57-15.92
		C39.194,11.649,44.459,8.254,51.276,6.259z"/>
</g>
</svg>
